<?xml version="1.0" encoding="UTF-8"?>
<svg xmlns="http://www.w3.org/2000/svg" width="512" height="512" viewBox="0 0 512 512">
  <rect width="512" height="512" rx="112" fill="#0b1220"/>
  <g fill="#ffffff">
    <path d="M156 188c0-17.673 14.327-32 32-32h176c17.673 0 32 14.327 32 32v136c0 17.673-14.327 32-32 32H188c-17.673 0-32-14.327-32-32V188zm36 0v136h248V188H192z"/>
    <path d="M220 230h72c13.255 0 24 10.745 24 24s-10.745 24-24 24h-72c-13.255 0-24-10.745-24-24s10.745-24 24-24z"/>
    <path d="M220 270h116c13.255 0 24 10.745 24 24s-10.745 24-24 24H220c-13.255 0-24-10.745-24-24s10.745-24 24-24z" opacity="0.9"/>
  </g>
</svg>
