<?xml version="1.0" encoding="UTF-8"?>
<svg xmlns="http://www.w3.org/2000/svg" width="512" height="512" viewBox="0 0 512 512">
  <rect width="512" height="512" fill="#0b1220"/>
  <g fill="#ffffff">
    <path d="M144 184c0-22.091 17.909-40 40-40h184c22.091 0 40 17.909 40 40v144c0 22.091-17.909 40-40 40H184c-22.091 0-40-17.909-40-40V184zm48 8v128h248V192H192z"/>
    <path d="M216 232h80c13.255 0 24 10.745 24 24s-10.745 24-24 24h-80c-13.255 0-24-10.745-24-24s10.745-24 24-24z"/>
    <path d="M216 276h128c13.255 0 24 10.745 24 24s-10.745 24-24 24H216c-13.255 0-24-10.745-24-24s10.745-24 24-24z" opacity="0.9"/>
  </g>
</svg>
